<svg xmlns="http://www.w3.org/2000/svg" viewBox="0 0 521 153"><path d="M139 145.57c0-7.318.043-7.427 2.682-7.75 6.584-.805 3.247-1.748 11.126-21.695l8.444-21.379 8.53 21.629c7.727 19.597 5.687 21.118 10.873 21.629 2.24.22 2.345.299 2.345 7.5v7.5h-3.5c-3.333 0-3.5-.167-3.5-3.5v-3.5h-29v3.5c0 3.417-.095 3.5-4 3.5h-4zm29.621-9.94c-1.55-6.18-7.48-19.99-7.99-18.63-.314.824-1.893 5.1-3.508 9.5s-3.251 8.787-3.635 9.75c-.631 1.58.094 1.75 7.517 1.75 8.148 0 8.21-.02 7.62-2.375zm-162.42 9.38c-1.815-.43-3.615-1.09-4-1.48-1.37-1.37-2.004-8.85-2.112-55.324L.002 50.914l12.25-12.655a6218.693 6218.693 0 0 1 24.75-25.392L49.502.13l16.666 8.323c9.166 4.578 17.266 8.547 18 8.82.87.325-.77 2.562-4.726 6.445C66.864 36.064 67.616 39.504 88.05 63.1c16.72 19.308 17.32 16.907 13.992 25.482-1.03 2.65-3.266 31.214-2.653 33.66 1.005 4.011-.868 3.127 8.054 5.79 5.095 1.52 6.558 1.41 6.558 9.141 0 5.889-.025 5.939-3.691 7.471-4.83 2.018-29.081 1.622-31.656-.517-2.017-1.675-1.597-13.51.319-15.055.687-.554 4.629-1.317 6.554-1.697 6.234-1.23 4.652-4.464 5.752-7.617.596-1.7.911-4.089 1.444-11.429 1.68-28.817.847-13.006-6.381-22.873-3.483-3.556-14.853-13.447-15.726-13.447-.338 0-.614 16.699-.614 37.11l-1.804 34.944-13.046 1.803c-16.287-.4-18.15-1.02-18.15-6.01 0-2.157.627-3.14 2.44-3.83 2.679-1.02 4.556-5.99 4.539-12.02-.017-6.03-1.14-6.68-6.31-3.65-7.395 4.33-8.67 6.66-8.67 15.81 0 7.55-.11 7.932-2.565 8.865-2.981 1.134-15.43 1.127-20.236-.011zM65.027 21.47c.982-1.184 1.009-2.103.117-4.06-.981-2.154-1.712-2.485-4.897-2.221-2.952.244-3.81.766-4.051 2.463-.193 1.35.544 2.75 1.972 3.75 2.869 2.01 5.228 2.032 6.859.067zm127.98 100.03V97l9.25.005c11.499.007 16.236 1.28 20.453 5.497 2.89 2.89 3.3 3.95 3.3 8.5 0 4.549-.413 5.613-3.297 8.497-3.773 3.773-8.91 5.49-16.453 5.498l-5.25.01v21h-8zm23-6.5c1.1-1.1 2-3.1 2-4.444 0-3.75-3.49-5.56-10.72-5.56h-6.28v12h6.5c5.167 0 6.91-.41 8.5-2zm34.5 29.51c-4.994-1.752-11.718-8.957-13.307-14.26-4.064-13.565 2.882-28.956 14.529-32.19 5.912-1.643 15.257-1.254 19.833.825 4.993 2.268 10.733 8.797 12.284 13.972 1.483 4.951 1.483 12.332 0 17.283-1.55 5.176-7.29 11.704-12.284 13.972-4.91 2.23-15.268 2.425-21.056.396zm19.09-8.567c10.523-6.503 9.457-24.066-1.808-29.786-6.866-3.486-12.742-2.462-18.414 3.21-14.373 14.373 3.007 37.215 20.222 26.576zm29.41-14.33v-24.61h31v8h-23v11.744l7.75.45c4.263.249 9.06 1.094 10.66 1.88 6.625 3.249 9.42 12.33 5.809 18.876-3.12 5.657-7.943 7.474-20.969 7.9l-11.25.36zm23.545 13.939c1.36-1.35 2.46-3.17 2.46-4.05 0-.876-1.105-2.696-2.455-4.046-2.106-2.106-3.383-2.455-9-2.455h-6.54v13h6.546c5.616 0 6.894-.348 9-2.454zm23.46-14.05v-24.5h7.99l9.636 19.25 9.637 19.25 9.294-19.25 9.294-19.25h8.149v49h-8l-.079-14.75-.078-14.75-7.172 14.708-7.17 14.708-4.016.042-4.015.042-7.678-15.25-7.677-15.25-.057 15.25-.06 15.25h-8zm66.124 19.25a9448.976 9448.976 0 0 0 9.559-24.214c4.105-10.43 7.722-19.382 8.038-19.893.413-.668 20.179 47.225 20.268 49.107.006.137-1.97.25-4.39.25-3.993 0-4.5-.28-5.448-3l-1.046-3h-17.909l-1.046 3c-.954 2.738-1.44 3-5.583 3h-4.537zm23.646-9c-.244-.688-1.5-4.288-2.792-8-1.291-3.713-2.604-6.75-2.916-6.75-.313 0-1.55 2.812-2.75 6.25-1.2 3.437-2.485 7.037-2.854 8-.596 1.55.034 1.75 5.542 1.75 4.541 0 6.094-.337 5.77-1.25zm24.23-10.25v-24.5h8v41h18v-41h8v41h19v-41h8v49h-61zm-332-71v-24.5h31v8h-23v41h-8zm55.5 23.01c-4.994-1.751-11.718-8.956-13.307-14.26-4.064-13.564 4.326-27.151 14.529-32.19 7.355-2.725 15.257-1.253 19.833.826 14.052 6.382 18.046 27.04 7.59 39.257-1.944 2.27-5.36 4.957-7.59 5.97-4.91 2.23-15.268 2.425-21.056.396zm19.09-8.566c10.523-6.504 9.457-24.066-1.808-29.786-6.866-3.487-12.742-2.462-18.414 3.21-14.373 14.373 2.286 38.658 20.222 26.576zm29.41-14.444v-24.5l9.25.006c11.499.006 16.236 1.28 20.453 5.497 2.89 2.883 3.3 3.947 3.3 8.496s-.413 5.613-3.297 8.497c-3.773 3.773-8.91 5.49-16.453 5.497l-5.25.006v21h-8zm23-6.5c1.1-1.1 2-3.1 2-4.443 0-3.747-3.49-5.557-10.72-5.557h-6.28v12h6.5c5.167 0 6.91-.41 8.5-2z"/></svg>